# xmcd
#
# Track frame offsets: 
#        150
#        15135
#        29807
#        45665
#        63337
#        78705
#        95822
#        111850
#        134610
#        150682
#        166477
#        191405
#        212582
#        228920
#        245852
#        262155
#        280995
#        299367
#        312490
#
# Disc length: 4440 seconds
#
# Revision: 2
# Processed by: cddbd v1.5.2PL0 Copyright (c) Steve Scherf et al.
# Submitted via: ExactAudioCopyFreeDBPlugin 1.0
#
DISCID=20115613
DTITLE=Various Artist - Malaco:  The Last Soul Company - A Thirty-Yea
DTITLE=r Retrospective [box set]
DYEAR=1999
DGENRE=Soul
TTITLE0=Freedom - Dance, Sing Along
TTITLE1=Fern Kinney - Groove Me
TTITLE2=Freedom - Get Up and Dance
TTITLE3=Fern Kinney - Together We Are Beautiful
TTITLE4=Fern Kinney and Frederick Knight - Sweet Life
TTITLE5=Z.Z. Hill - Please Don't Make Me Do Something Bad to You
TTITLE6=Ruby Wilson - Seeing You Again
TTITLE7=Z.Z. Hill - Down Home Blues
TTITLE8=Z.Z. Hill - Cheating in the Next Room
TTITLE9=Power - Groovin'
TTITLE10=Sho-Nuff - Don't Be Lonely
TTITLE11=Latimore - Bad Risk
TTITLE12=Denise LaSalle - A Lady in the Street
TTITLE13=G.C. Cameron - Let's Share
TTITLE14=Z.Z. Hill - Someone Else is Steppin' In
TTITLE15=Z.Z. Hill - Get a Little, Give a Little
TTITLE16=Denise LaSalle and Latimore - Right Place, Right Time
TTITLE17=Z.Z. Hill - Shade Tree Mechanic
TTITLE18=Denise LaSalle - Your Husband is Cheating on Us
EXTD=
EXTT0=
EXTT1=
EXTT2=
EXTT3=
EXTT4=
EXTT5=
EXTT6=
EXTT7=
EXTT8=
EXTT9=
EXTT10=
EXTT11=
EXTT12=
EXTT13=
EXTT14=
EXTT15=
EXTT16=
EXTT17=
EXTT18=
PLAYORDER=
